<mxfile host="app.diagrams.net" modified="2024-04-26T02:30:25.519Z" agent="Mozilla/5.0 (Windows NT 10.0; Win64; x64) AppleWebKit/537.36 (KHTML, like Gecko) Chrome/124.0.0.0 Safari/537.36" etag="P4Il8xDG1VDdyHoBuQTn" version="24.3.0" type="github">
  <diagram id="R2lEEEUBdFMjLlhIrx00" name="Page-1">
    <mxGraphModel dx="1900" dy="565" grid="1" gridSize="10" guides="1" tooltips="1" connect="1" arrows="1" fold="1" page="1" pageScale="1" pageWidth="850" pageHeight="1100" math="0" shadow="0" extFonts="Permanent Marker^https://fonts.googleapis.com/css?family=Permanent+Marker">
      <root>
        <mxCell id="0" />
        <mxCell id="1" parent="0" />
        <mxCell id="PlArRIf5Hi5UHJ91v6Dw-1" value="" style="rounded=0;whiteSpace=wrap;html=1;" vertex="1" parent="1">
          <mxGeometry x="510" y="480" width="130" height="60" as="geometry" />
        </mxCell>
        <mxCell id="PlArRIf5Hi5UHJ91v6Dw-2" value="&lt;font style=&quot;vertical-align: inherit; font-size: 26px;&quot;&gt;&lt;font style=&quot;vertical-align: inherit; font-size: 26px;&quot;&gt;&lt;font style=&quot;vertical-align: inherit; font-size: 26px;&quot;&gt;&lt;font style=&quot;vertical-align: inherit; font-size: 26px;&quot;&gt;VUELO&lt;/font&gt;&lt;/font&gt;&lt;/font&gt;&lt;/font&gt;" style="text;html=1;align=center;verticalAlign=middle;whiteSpace=wrap;rounded=0;" vertex="1" parent="1">
          <mxGeometry x="535" y="495" width="80" height="30" as="geometry" />
        </mxCell>
        <mxCell id="PlArRIf5Hi5UHJ91v6Dw-3" value="" style="rounded=0;whiteSpace=wrap;html=1;" vertex="1" parent="1">
          <mxGeometry x="165" y="185" width="130" height="60" as="geometry" />
        </mxCell>
        <mxCell id="PlArRIf5Hi5UHJ91v6Dw-4" value="&lt;font style=&quot;font-size: 18px;&quot;&gt;AEROPUERTO&lt;/font&gt;" style="text;html=1;align=center;verticalAlign=middle;whiteSpace=wrap;rounded=0;" vertex="1" parent="1">
          <mxGeometry x="190" y="200" width="80" height="30" as="geometry" />
        </mxCell>
        <mxCell id="PlArRIf5Hi5UHJ91v6Dw-5" value="" style="rounded=0;whiteSpace=wrap;html=1;" vertex="1" parent="1">
          <mxGeometry x="70" y="480" width="130" height="60" as="geometry" />
        </mxCell>
        <mxCell id="PlArRIf5Hi5UHJ91v6Dw-6" value="&lt;span style=&quot;font-size: 18px;&quot;&gt;PROGRAMA DE VUELO&lt;/span&gt;" style="text;html=1;align=center;verticalAlign=middle;whiteSpace=wrap;rounded=0;" vertex="1" parent="1">
          <mxGeometry x="100" y="495" width="80" height="30" as="geometry" />
        </mxCell>
        <mxCell id="PlArRIf5Hi5UHJ91v6Dw-7" value="" style="rounded=0;whiteSpace=wrap;html=1;" vertex="1" parent="1">
          <mxGeometry x="640" y="185" width="130" height="60" as="geometry" />
        </mxCell>
        <mxCell id="PlArRIf5Hi5UHJ91v6Dw-8" value="&lt;span style=&quot;font-size: 18px;&quot;&gt;AVIONES&lt;/span&gt;" style="text;html=1;align=center;verticalAlign=middle;whiteSpace=wrap;rounded=0;" vertex="1" parent="1">
          <mxGeometry x="665" y="200" width="80" height="30" as="geometry" />
        </mxCell>
        <mxCell id="PlArRIf5Hi5UHJ91v6Dw-9" value="" style="rounded=0;whiteSpace=wrap;html=1;" vertex="1" parent="1">
          <mxGeometry x="1000" y="480" width="130" height="60" as="geometry" />
        </mxCell>
        <mxCell id="PlArRIf5Hi5UHJ91v6Dw-10" value="&lt;span style=&quot;font-size: 18px;&quot;&gt;PASAJERO&lt;/span&gt;" style="text;html=1;align=center;verticalAlign=middle;whiteSpace=wrap;rounded=0;" vertex="1" parent="1">
          <mxGeometry x="1025" y="495" width="80" height="30" as="geometry" />
        </mxCell>
        <mxCell id="PlArRIf5Hi5UHJ91v6Dw-11" value="" style="ellipse;whiteSpace=wrap;html=1;" vertex="1" parent="1">
          <mxGeometry x="10" y="60" width="120" height="80" as="geometry" />
        </mxCell>
        <mxCell id="PlArRIf5Hi5UHJ91v6Dw-14" value="&lt;font style=&quot;font-size: 16px;&quot;&gt;CODIGO&lt;/font&gt;" style="text;html=1;align=center;verticalAlign=middle;whiteSpace=wrap;rounded=0;" vertex="1" parent="1">
          <mxGeometry x="40" y="85" width="60" height="30" as="geometry" />
        </mxCell>
        <mxCell id="PlArRIf5Hi5UHJ91v6Dw-15" value="" style="ellipse;whiteSpace=wrap;html=1;" vertex="1" parent="1">
          <mxGeometry x="145" y="60" width="120" height="80" as="geometry" />
        </mxCell>
        <mxCell id="PlArRIf5Hi5UHJ91v6Dw-16" value="&lt;span style=&quot;font-size: 16px;&quot;&gt;PAÍS&lt;/span&gt;" style="text;html=1;align=center;verticalAlign=middle;whiteSpace=wrap;rounded=0;" vertex="1" parent="1">
          <mxGeometry x="175" y="85" width="60" height="30" as="geometry" />
        </mxCell>
        <mxCell id="PlArRIf5Hi5UHJ91v6Dw-19" value="" style="ellipse;whiteSpace=wrap;html=1;" vertex="1" parent="1">
          <mxGeometry y="210" width="120" height="80" as="geometry" />
        </mxCell>
        <mxCell id="PlArRIf5Hi5UHJ91v6Dw-20" value="&lt;span style=&quot;font-size: 16px;&quot;&gt;CIUDAD&lt;/span&gt;" style="text;html=1;align=center;verticalAlign=middle;whiteSpace=wrap;rounded=0;" vertex="1" parent="1">
          <mxGeometry x="30" y="235" width="60" height="30" as="geometry" />
        </mxCell>
        <mxCell id="PlArRIf5Hi5UHJ91v6Dw-21" value="" style="ellipse;whiteSpace=wrap;html=1;" vertex="1" parent="1">
          <mxGeometry x="295" y="65" width="120" height="80" as="geometry" />
        </mxCell>
        <mxCell id="PlArRIf5Hi5UHJ91v6Dw-22" value="&lt;span style=&quot;font-size: 16px;&quot;&gt;NOMBRE&lt;/span&gt;" style="text;html=1;align=center;verticalAlign=middle;whiteSpace=wrap;rounded=0;" vertex="1" parent="1">
          <mxGeometry x="320" y="90" width="60" height="30" as="geometry" />
        </mxCell>
        <mxCell id="PlArRIf5Hi5UHJ91v6Dw-26" value="" style="endArrow=none;html=1;rounded=0;exitX=0.5;exitY=1;exitDx=0;exitDy=0;entryX=0;entryY=0;entryDx=0;entryDy=0;" edge="1" parent="1" source="PlArRIf5Hi5UHJ91v6Dw-11" target="PlArRIf5Hi5UHJ91v6Dw-3">
          <mxGeometry width="50" height="50" relative="1" as="geometry">
            <mxPoint x="70" y="210" as="sourcePoint" />
            <mxPoint x="120" y="160" as="targetPoint" />
          </mxGeometry>
        </mxCell>
        <mxCell id="PlArRIf5Hi5UHJ91v6Dw-28" value="" style="endArrow=none;html=1;rounded=0;exitX=1;exitY=0.5;exitDx=0;exitDy=0;entryX=0;entryY=0.5;entryDx=0;entryDy=0;" edge="1" parent="1" source="PlArRIf5Hi5UHJ91v6Dw-19" target="PlArRIf5Hi5UHJ91v6Dw-3">
          <mxGeometry width="50" height="50" relative="1" as="geometry">
            <mxPoint x="120" y="270" as="sourcePoint" />
            <mxPoint x="160" y="220" as="targetPoint" />
          </mxGeometry>
        </mxCell>
        <mxCell id="PlArRIf5Hi5UHJ91v6Dw-29" value="" style="endArrow=none;html=1;rounded=0;exitX=0.352;exitY=0.013;exitDx=0;exitDy=0;exitPerimeter=0;" edge="1" parent="1" source="PlArRIf5Hi5UHJ91v6Dw-3">
          <mxGeometry width="50" height="50" relative="1" as="geometry">
            <mxPoint x="210" y="180" as="sourcePoint" />
            <mxPoint x="210" y="140" as="targetPoint" />
          </mxGeometry>
        </mxCell>
        <mxCell id="PlArRIf5Hi5UHJ91v6Dw-30" value="" style="endArrow=none;html=1;rounded=0;exitX=1;exitY=0;exitDx=0;exitDy=0;" edge="1" parent="1" source="PlArRIf5Hi5UHJ91v6Dw-3">
          <mxGeometry width="50" height="50" relative="1" as="geometry">
            <mxPoint x="290" y="195" as="sourcePoint" />
            <mxPoint x="340" y="145" as="targetPoint" />
          </mxGeometry>
        </mxCell>
        <mxCell id="PlArRIf5Hi5UHJ91v6Dw-31" value="" style="rhombus;whiteSpace=wrap;html=1;" vertex="1" parent="1">
          <mxGeometry x="425" y="185" width="125" height="110" as="geometry" />
        </mxCell>
        <mxCell id="PlArRIf5Hi5UHJ91v6Dw-32" value="&lt;font style=&quot;font-size: 17px;&quot;&gt;AER_ AVION&lt;/font&gt;" style="text;html=1;align=center;verticalAlign=middle;whiteSpace=wrap;rounded=0;" vertex="1" parent="1">
          <mxGeometry x="457.5" y="225" width="60" height="30" as="geometry" />
        </mxCell>
        <mxCell id="PlArRIf5Hi5UHJ91v6Dw-34" value="" style="endArrow=none;html=1;rounded=0;entryX=0;entryY=0.5;entryDx=0;entryDy=0;" edge="1" parent="1" target="PlArRIf5Hi5UHJ91v6Dw-31">
          <mxGeometry width="50" height="50" relative="1" as="geometry">
            <mxPoint x="300" y="240" as="sourcePoint" />
            <mxPoint x="350" y="230" as="targetPoint" />
          </mxGeometry>
        </mxCell>
        <mxCell id="PlArRIf5Hi5UHJ91v6Dw-35" value="" style="endArrow=none;html=1;rounded=0;entryX=1;entryY=0.5;entryDx=0;entryDy=0;" edge="1" parent="1" target="PlArRIf5Hi5UHJ91v6Dw-31">
          <mxGeometry width="50" height="50" relative="1" as="geometry">
            <mxPoint x="637" y="240" as="sourcePoint" />
            <mxPoint x="555" y="240" as="targetPoint" />
          </mxGeometry>
        </mxCell>
        <mxCell id="PlArRIf5Hi5UHJ91v6Dw-38" value="" style="ellipse;whiteSpace=wrap;html=1;" vertex="1" parent="1">
          <mxGeometry x="555" y="60" width="120" height="80" as="geometry" />
        </mxCell>
        <mxCell id="PlArRIf5Hi5UHJ91v6Dw-39" value="&lt;span style=&quot;font-size: 16px;&quot;&gt;MODELO&lt;/span&gt;" style="text;html=1;align=center;verticalAlign=middle;whiteSpace=wrap;rounded=0;" vertex="1" parent="1">
          <mxGeometry x="590" y="85" width="60" height="30" as="geometry" />
        </mxCell>
        <mxCell id="PlArRIf5Hi5UHJ91v6Dw-42" value="" style="ellipse;whiteSpace=wrap;html=1;" vertex="1" parent="1">
          <mxGeometry x="710" y="60" width="120" height="80" as="geometry" />
        </mxCell>
        <mxCell id="PlArRIf5Hi5UHJ91v6Dw-43" value="&lt;span style=&quot;font-size: 16px;&quot;&gt;CAPACIDAD&lt;/span&gt;" style="text;html=1;align=center;verticalAlign=middle;whiteSpace=wrap;rounded=0;" vertex="1" parent="1">
          <mxGeometry x="740" y="85" width="60" height="30" as="geometry" />
        </mxCell>
        <mxCell id="PlArRIf5Hi5UHJ91v6Dw-45" value="" style="endArrow=none;html=1;rounded=0;entryX=0.5;entryY=1;entryDx=0;entryDy=0;" edge="1" parent="1" target="PlArRIf5Hi5UHJ91v6Dw-38">
          <mxGeometry width="50" height="50" relative="1" as="geometry">
            <mxPoint x="640" y="185" as="sourcePoint" />
            <mxPoint x="690" y="135" as="targetPoint" />
          </mxGeometry>
        </mxCell>
        <mxCell id="PlArRIf5Hi5UHJ91v6Dw-46" value="" style="endArrow=none;html=1;rounded=0;entryX=0.5;entryY=1;entryDx=0;entryDy=0;entryPerimeter=0;exitX=0.75;exitY=0;exitDx=0;exitDy=0;" edge="1" parent="1" source="PlArRIf5Hi5UHJ91v6Dw-7" target="PlArRIf5Hi5UHJ91v6Dw-42">
          <mxGeometry width="50" height="50" relative="1" as="geometry">
            <mxPoint x="740" y="180" as="sourcePoint" />
            <mxPoint x="780" y="140" as="targetPoint" />
          </mxGeometry>
        </mxCell>
        <mxCell id="PlArRIf5Hi5UHJ91v6Dw-47" value="" style="endArrow=none;html=1;rounded=0;" edge="1" parent="1">
          <mxGeometry width="50" height="50" relative="1" as="geometry">
            <mxPoint x="710" y="330" as="sourcePoint" />
            <mxPoint x="710" y="245" as="targetPoint" />
          </mxGeometry>
        </mxCell>
        <mxCell id="PlArRIf5Hi5UHJ91v6Dw-49" value="" style="rhombus;whiteSpace=wrap;html=1;" vertex="1" parent="1">
          <mxGeometry x="650" y="330" width="125" height="110" as="geometry" />
        </mxCell>
        <mxCell id="PlArRIf5Hi5UHJ91v6Dw-50" value="&lt;font style=&quot;font-size: 17px;&quot;&gt;&amp;nbsp;AVION_ VUELO&lt;/font&gt;" style="text;html=1;align=center;verticalAlign=middle;whiteSpace=wrap;rounded=0;" vertex="1" parent="1">
          <mxGeometry x="682.5" y="370" width="60" height="30" as="geometry" />
        </mxCell>
        <mxCell id="PlArRIf5Hi5UHJ91v6Dw-51" value="" style="endArrow=none;html=1;rounded=0;entryX=0.5;entryY=1;entryDx=0;entryDy=0;" edge="1" parent="1" target="PlArRIf5Hi5UHJ91v6Dw-49">
          <mxGeometry width="50" height="50" relative="1" as="geometry">
            <mxPoint x="713" y="510" as="sourcePoint" />
            <mxPoint x="720" y="440" as="targetPoint" />
          </mxGeometry>
        </mxCell>
        <mxCell id="PlArRIf5Hi5UHJ91v6Dw-52" value="" style="endArrow=none;html=1;rounded=0;exitX=1;exitY=0.5;exitDx=0;exitDy=0;entryX=0;entryY=0.5;entryDx=0;entryDy=0;" edge="1" parent="1" source="PlArRIf5Hi5UHJ91v6Dw-1">
          <mxGeometry width="50" height="50" relative="1" as="geometry">
            <mxPoint x="640" y="540" as="sourcePoint" />
            <mxPoint x="800" y="510" as="targetPoint" />
          </mxGeometry>
        </mxCell>
        <mxCell id="PlArRIf5Hi5UHJ91v6Dw-57" value="" style="ellipse;whiteSpace=wrap;html=1;" vertex="1" parent="1">
          <mxGeometry x="580" y="580" width="120" height="80" as="geometry" />
        </mxCell>
        <mxCell id="PlArRIf5Hi5UHJ91v6Dw-58" value="&lt;span style=&quot;font-size: 16px;&quot;&gt;PLAZA VACIA&lt;/span&gt;" style="text;html=1;align=center;verticalAlign=middle;whiteSpace=wrap;rounded=0;" vertex="1" parent="1">
          <mxGeometry x="470" y="595" width="60" height="30" as="geometry" />
        </mxCell>
        <mxCell id="PlArRIf5Hi5UHJ91v6Dw-59" value="" style="ellipse;whiteSpace=wrap;html=1;" vertex="1" parent="1">
          <mxGeometry x="450" y="580" width="120" height="80" as="geometry" />
        </mxCell>
        <mxCell id="PlArRIf5Hi5UHJ91v6Dw-60" value="&lt;span style=&quot;font-size: 16px;&quot;&gt;PLAZA&amp;nbsp;&lt;/span&gt;" style="text;html=1;align=center;verticalAlign=middle;whiteSpace=wrap;rounded=0;" vertex="1" parent="1">
          <mxGeometry x="480" y="605" width="60" height="30" as="geometry" />
        </mxCell>
        <mxCell id="PlArRIf5Hi5UHJ91v6Dw-61" value="&lt;span style=&quot;font-size: 16px;&quot;&gt;&amp;nbsp;FECHA&lt;/span&gt;" style="text;html=1;align=center;verticalAlign=middle;whiteSpace=wrap;rounded=0;" vertex="1" parent="1">
          <mxGeometry x="610" y="605" width="60" height="30" as="geometry" />
        </mxCell>
        <mxCell id="PlArRIf5Hi5UHJ91v6Dw-62" value="" style="endArrow=none;html=1;rounded=0;exitX=0.5;exitY=0;exitDx=0;exitDy=0;" edge="1" parent="1" source="PlArRIf5Hi5UHJ91v6Dw-59">
          <mxGeometry width="50" height="50" relative="1" as="geometry">
            <mxPoint x="500" y="590" as="sourcePoint" />
            <mxPoint x="550" y="540" as="targetPoint" />
          </mxGeometry>
        </mxCell>
        <mxCell id="PlArRIf5Hi5UHJ91v6Dw-63" value="" style="endArrow=none;html=1;rounded=0;exitX=0.5;exitY=0;exitDx=0;exitDy=0;" edge="1" parent="1" source="PlArRIf5Hi5UHJ91v6Dw-57">
          <mxGeometry width="50" height="50" relative="1" as="geometry">
            <mxPoint x="565" y="590" as="sourcePoint" />
            <mxPoint x="580" y="540" as="targetPoint" />
          </mxGeometry>
        </mxCell>
        <mxCell id="PlArRIf5Hi5UHJ91v6Dw-64" value="" style="rhombus;whiteSpace=wrap;html=1;" vertex="1" parent="1">
          <mxGeometry x="363" y="310" width="125" height="110" as="geometry" />
        </mxCell>
        <mxCell id="PlArRIf5Hi5UHJ91v6Dw-65" value="&lt;font style=&quot;font-size: 17px;&quot;&gt;AER_ VUELO&lt;/font&gt;" style="text;html=1;align=center;verticalAlign=middle;whiteSpace=wrap;rounded=0;" vertex="1" parent="1">
          <mxGeometry x="397.5" y="350" width="60" height="30" as="geometry" />
        </mxCell>
        <mxCell id="PlArRIf5Hi5UHJ91v6Dw-67" value="" style="endArrow=none;html=1;rounded=0;entryX=0.869;entryY=0.987;entryDx=0;entryDy=0;entryPerimeter=0;" edge="1" parent="1" source="PlArRIf5Hi5UHJ91v6Dw-64" target="PlArRIf5Hi5UHJ91v6Dw-3">
          <mxGeometry width="50" height="50" relative="1" as="geometry">
            <mxPoint x="240" y="290" as="sourcePoint" />
            <mxPoint x="290" y="240" as="targetPoint" />
          </mxGeometry>
        </mxCell>
        <mxCell id="PlArRIf5Hi5UHJ91v6Dw-68" value="" style="endArrow=none;html=1;rounded=0;exitX=0.5;exitY=0;exitDx=0;exitDy=0;" edge="1" parent="1" source="PlArRIf5Hi5UHJ91v6Dw-1" target="PlArRIf5Hi5UHJ91v6Dw-64">
          <mxGeometry width="50" height="50" relative="1" as="geometry">
            <mxPoint x="460" y="440" as="sourcePoint" />
            <mxPoint x="510" y="390" as="targetPoint" />
          </mxGeometry>
        </mxCell>
        <mxCell id="PlArRIf5Hi5UHJ91v6Dw-69" value="" style="rhombus;whiteSpace=wrap;html=1;" vertex="1" parent="1">
          <mxGeometry x="290" y="455" width="125" height="110" as="geometry" />
        </mxCell>
        <mxCell id="PlArRIf5Hi5UHJ91v6Dw-70" value="&lt;font style=&quot;font-size: 17px;&quot;&gt;&amp;nbsp;&lt;/font&gt;&lt;font style=&quot;font-size: 14px;&quot;&gt;VUELO_ PROGRA&lt;/font&gt;&lt;font style=&quot;font-size: 17px;&quot;&gt;MA&lt;/font&gt;" style="text;html=1;align=center;verticalAlign=middle;whiteSpace=wrap;rounded=0;" vertex="1" parent="1">
          <mxGeometry x="322.5" y="495" width="60" height="30" as="geometry" />
        </mxCell>
        <mxCell id="PlArRIf5Hi5UHJ91v6Dw-72" value="" style="endArrow=none;html=1;rounded=0;" edge="1" parent="1">
          <mxGeometry width="50" height="50" relative="1" as="geometry">
            <mxPoint x="420" y="515" as="sourcePoint" />
            <mxPoint x="510" y="514.5" as="targetPoint" />
          </mxGeometry>
        </mxCell>
        <mxCell id="PlArRIf5Hi5UHJ91v6Dw-73" value="" style="endArrow=none;html=1;rounded=0;" edge="1" parent="1">
          <mxGeometry width="50" height="50" relative="1" as="geometry">
            <mxPoint x="200" y="510" as="sourcePoint" />
            <mxPoint x="290" y="509.5" as="targetPoint" />
          </mxGeometry>
        </mxCell>
        <mxCell id="PlArRIf5Hi5UHJ91v6Dw-85" value="" style="ellipse;whiteSpace=wrap;html=1;" vertex="1" parent="1">
          <mxGeometry x="-90" y="515" width="120" height="80" as="geometry" />
        </mxCell>
        <mxCell id="PlArRIf5Hi5UHJ91v6Dw-86" value="NUMERO DE VUELO" style="text;html=1;align=center;verticalAlign=middle;whiteSpace=wrap;rounded=0;" vertex="1" parent="1">
          <mxGeometry x="-60" y="540" width="60" height="30" as="geometry" />
        </mxCell>
        <mxCell id="PlArRIf5Hi5UHJ91v6Dw-87" value="" style="ellipse;whiteSpace=wrap;html=1;" vertex="1" parent="1">
          <mxGeometry x="-110" y="400" width="120" height="80" as="geometry" />
        </mxCell>
        <mxCell id="PlArRIf5Hi5UHJ91v6Dw-88" value="LINEA AEREA" style="text;html=1;align=center;verticalAlign=middle;whiteSpace=wrap;rounded=0;" vertex="1" parent="1">
          <mxGeometry x="-80" y="425" width="60" height="30" as="geometry" />
        </mxCell>
        <mxCell id="PlArRIf5Hi5UHJ91v6Dw-89" value="" style="ellipse;whiteSpace=wrap;html=1;" vertex="1" parent="1">
          <mxGeometry x="45" y="360" width="120" height="80" as="geometry" />
        </mxCell>
        <mxCell id="PlArRIf5Hi5UHJ91v6Dw-90" value="&lt;span style=&quot;font-size: 16px;&quot;&gt;DIAS DE LA SEMA&lt;/span&gt;" style="text;html=1;align=center;verticalAlign=middle;whiteSpace=wrap;rounded=0;" vertex="1" parent="1">
          <mxGeometry x="75" y="385" width="60" height="30" as="geometry" />
        </mxCell>
        <mxCell id="PlArRIf5Hi5UHJ91v6Dw-91" value="" style="endArrow=none;html=1;rounded=0;" edge="1" parent="1" source="PlArRIf5Hi5UHJ91v6Dw-5">
          <mxGeometry width="50" height="50" relative="1" as="geometry">
            <mxPoint x="60" y="490" as="sourcePoint" />
            <mxPoint x="110" y="440" as="targetPoint" />
          </mxGeometry>
        </mxCell>
        <mxCell id="PlArRIf5Hi5UHJ91v6Dw-92" value="" style="endArrow=none;html=1;rounded=0;exitX=0;exitY=0.25;exitDx=0;exitDy=0;entryX=0.937;entryY=0.742;entryDx=0;entryDy=0;entryPerimeter=0;" edge="1" parent="1" source="PlArRIf5Hi5UHJ91v6Dw-5" target="PlArRIf5Hi5UHJ91v6Dw-87">
          <mxGeometry width="50" height="50" relative="1" as="geometry">
            <mxPoint x="14" y="495" as="sourcePoint" />
            <mxPoint y="455" as="targetPoint" />
          </mxGeometry>
        </mxCell>
        <mxCell id="PlArRIf5Hi5UHJ91v6Dw-93" value="" style="endArrow=none;html=1;rounded=0;exitX=0;exitY=1;exitDx=0;exitDy=0;" edge="1" parent="1" source="PlArRIf5Hi5UHJ91v6Dw-5">
          <mxGeometry width="50" height="50" relative="1" as="geometry">
            <mxPoint x="94" y="586" as="sourcePoint" />
            <mxPoint x="30" y="550" as="targetPoint" />
          </mxGeometry>
        </mxCell>
        <mxCell id="PlArRIf5Hi5UHJ91v6Dw-94" value="" style="endArrow=none;html=1;rounded=0;entryX=0.869;entryY=0.987;entryDx=0;entryDy=0;entryPerimeter=0;exitX=0.5;exitY=0;exitDx=0;exitDy=0;" edge="1" parent="1" source="PlArRIf5Hi5UHJ91v6Dw-97">
          <mxGeometry width="50" height="50" relative="1" as="geometry">
            <mxPoint x="190" y="320" as="sourcePoint" />
            <mxPoint x="230" y="245" as="targetPoint" />
          </mxGeometry>
        </mxCell>
        <mxCell id="PlArRIf5Hi5UHJ91v6Dw-97" value="" style="rhombus;whiteSpace=wrap;html=1;" vertex="1" parent="1">
          <mxGeometry x="180" y="315" width="125" height="110" as="geometry" />
        </mxCell>
        <mxCell id="PlArRIf5Hi5UHJ91v6Dw-98" value="&lt;font style=&quot;font-size: 17px;&quot;&gt;AER_ LINEA&lt;/font&gt;" style="text;html=1;align=center;verticalAlign=middle;whiteSpace=wrap;rounded=0;" vertex="1" parent="1">
          <mxGeometry x="212.5" y="355" width="60" height="30" as="geometry" />
        </mxCell>
        <mxCell id="PlArRIf5Hi5UHJ91v6Dw-100" value="" style="endArrow=none;html=1;rounded=0;exitX=0.75;exitY=0;exitDx=0;exitDy=0;entryX=0.461;entryY=0.942;entryDx=0;entryDy=0;entryPerimeter=0;" edge="1" parent="1" source="PlArRIf5Hi5UHJ91v6Dw-5" target="PlArRIf5Hi5UHJ91v6Dw-97">
          <mxGeometry width="50" height="50" relative="1" as="geometry">
            <mxPoint x="253" y="490" as="sourcePoint" />
            <mxPoint x="240" y="430" as="targetPoint" />
          </mxGeometry>
        </mxCell>
        <mxCell id="PlArRIf5Hi5UHJ91v6Dw-101" value="" style="endArrow=none;html=1;rounded=0;" edge="1" parent="1" source="PlArRIf5Hi5UHJ91v6Dw-102">
          <mxGeometry width="50" height="50" relative="1" as="geometry">
            <mxPoint x="130" y="610" as="sourcePoint" />
            <mxPoint x="130" y="540" as="targetPoint" />
          </mxGeometry>
        </mxCell>
        <mxCell id="PlArRIf5Hi5UHJ91v6Dw-102" value="" style="triangle;whiteSpace=wrap;html=1;direction=south;fillColor=#eeeeee;strokeColor=#36393d;" vertex="1" parent="1">
          <mxGeometry x="100" y="580" width="60" height="40" as="geometry" />
        </mxCell>
        <mxCell id="PlArRIf5Hi5UHJ91v6Dw-103" value="" style="rounded=0;whiteSpace=wrap;html=1;" vertex="1" parent="1">
          <mxGeometry x="-40" y="660" width="130" height="60" as="geometry" />
        </mxCell>
        <mxCell id="PlArRIf5Hi5UHJ91v6Dw-104" value="&lt;span style=&quot;font-size: 18px;&quot;&gt;ESCALA&lt;/span&gt;" style="text;html=1;align=center;verticalAlign=middle;whiteSpace=wrap;rounded=0;" vertex="1" parent="1">
          <mxGeometry x="-10" y="675" width="80" height="30" as="geometry" />
        </mxCell>
        <mxCell id="PlArRIf5Hi5UHJ91v6Dw-105" value="" style="rounded=0;whiteSpace=wrap;html=1;" vertex="1" parent="1">
          <mxGeometry x="177.5" y="660" width="130" height="60" as="geometry" />
        </mxCell>
        <mxCell id="PlArRIf5Hi5UHJ91v6Dw-106" value="&lt;span style=&quot;font-size: 18px;&quot;&gt;SIN ESCALA&lt;/span&gt;" style="text;html=1;align=center;verticalAlign=middle;whiteSpace=wrap;rounded=0;" vertex="1" parent="1">
          <mxGeometry x="207.5" y="675" width="80" height="30" as="geometry" />
        </mxCell>
        <mxCell id="PlArRIf5Hi5UHJ91v6Dw-107" value="" style="endArrow=none;html=1;rounded=0;" edge="1" parent="1">
          <mxGeometry width="50" height="50" relative="1" as="geometry">
            <mxPoint x="24.5" y="780" as="sourcePoint" />
            <mxPoint x="24.5" y="720" as="targetPoint" />
          </mxGeometry>
        </mxCell>
        <mxCell id="PlArRIf5Hi5UHJ91v6Dw-108" value="" style="rounded=0;whiteSpace=wrap;html=1;" vertex="1" parent="1">
          <mxGeometry x="-40" y="780" width="130" height="60" as="geometry" />
        </mxCell>
        <mxCell id="PlArRIf5Hi5UHJ91v6Dw-109" value="&lt;span style=&quot;font-size: 18px;&quot;&gt;# ESCALAS&lt;/span&gt;" style="text;html=1;align=center;verticalAlign=middle;whiteSpace=wrap;rounded=0;" vertex="1" parent="1">
          <mxGeometry x="-10" y="795" width="80" height="30" as="geometry" />
        </mxCell>
        <mxCell id="PlArRIf5Hi5UHJ91v6Dw-110" value="" style="endArrow=none;html=1;rounded=0;" edge="1" parent="1">
          <mxGeometry width="50" height="50" relative="1" as="geometry">
            <mxPoint x="70" y="660" as="sourcePoint" />
            <mxPoint x="120" y="610" as="targetPoint" />
          </mxGeometry>
        </mxCell>
        <mxCell id="PlArRIf5Hi5UHJ91v6Dw-111" value="" style="endArrow=none;html=1;rounded=0;exitX=0.25;exitY=0;exitDx=0;exitDy=0;entryX=0.685;entryY=0.36;entryDx=0;entryDy=0;entryPerimeter=0;" edge="1" parent="1" source="PlArRIf5Hi5UHJ91v6Dw-105" target="PlArRIf5Hi5UHJ91v6Dw-102">
          <mxGeometry width="50" height="50" relative="1" as="geometry">
            <mxPoint x="200" y="650" as="sourcePoint" />
            <mxPoint x="160" y="595" as="targetPoint" />
          </mxGeometry>
        </mxCell>
        <mxCell id="PlArRIf5Hi5UHJ91v6Dw-113" value="" style="endArrow=none;html=1;rounded=0;" edge="1" parent="1">
          <mxGeometry width="50" height="50" relative="1" as="geometry">
            <mxPoint x="915" y="509.5" as="sourcePoint" />
            <mxPoint x="995" y="509.5" as="targetPoint" />
          </mxGeometry>
        </mxCell>
        <mxCell id="PlArRIf5Hi5UHJ91v6Dw-114" value="" style="rhombus;whiteSpace=wrap;html=1;" vertex="1" parent="1">
          <mxGeometry x="790" y="455" width="125" height="110" as="geometry" />
        </mxCell>
        <mxCell id="PlArRIf5Hi5UHJ91v6Dw-115" value="&lt;font style=&quot;font-size: 17px;&quot;&gt;VUELO_ PASAJERO&lt;/font&gt;" style="text;html=1;align=center;verticalAlign=middle;whiteSpace=wrap;rounded=0;" vertex="1" parent="1">
          <mxGeometry x="822.5" y="495" width="60" height="30" as="geometry" />
        </mxCell>
        <mxCell id="PlArRIf5Hi5UHJ91v6Dw-116" value="" style="ellipse;whiteSpace=wrap;html=1;" vertex="1" parent="1">
          <mxGeometry x="970" y="360" width="120" height="80" as="geometry" />
        </mxCell>
        <mxCell id="PlArRIf5Hi5UHJ91v6Dw-117" value="&lt;span style=&quot;font-size: 16px;&quot;&gt;NUMERO DE VUELO&lt;/span&gt;" style="text;html=1;align=center;verticalAlign=middle;whiteSpace=wrap;rounded=0;" vertex="1" parent="1">
          <mxGeometry x="1000" y="385" width="60" height="30" as="geometry" />
        </mxCell>
        <mxCell id="PlArRIf5Hi5UHJ91v6Dw-118" value="" style="endArrow=none;html=1;rounded=0;" edge="1" parent="1" source="PlArRIf5Hi5UHJ91v6Dw-9">
          <mxGeometry width="50" height="50" relative="1" as="geometry">
            <mxPoint x="980" y="490" as="sourcePoint" />
            <mxPoint x="1030" y="440" as="targetPoint" />
          </mxGeometry>
        </mxCell>
        <mxCell id="PlArRIf5Hi5UHJ91v6Dw-123" value="&lt;font style=&quot;font-size: 16px;&quot;&gt;1&lt;/font&gt;" style="text;html=1;align=center;verticalAlign=middle;whiteSpace=wrap;rounded=0;" vertex="1" parent="1">
          <mxGeometry x="622.5" y="480" width="60" height="30" as="geometry" />
        </mxCell>
        <mxCell id="PlArRIf5Hi5UHJ91v6Dw-125" value="&lt;font style=&quot;font-size: 16px;&quot;&gt;1&lt;/font&gt;" style="text;html=1;align=center;verticalAlign=middle;whiteSpace=wrap;rounded=0;" vertex="1" parent="1">
          <mxGeometry x="750" y="485" width="60" height="30" as="geometry" />
        </mxCell>
      </root>
    </mxGraphModel>
  </diagram>
</mxfile>
